<svg xmlns="http://www.w3.org/2000/svg" width="115" height="26" viewBox="0 0 115 26">
  <g id="Group_11643" data-name="Group 11643" transform="translate(0)">
    <g id="Group_2519" data-name="Group 2519">
      <path id="Path_28" data-name="Path 28" d="M-1869.963,3355.643v-19.855l-9.025,7.108v12.719a11.763,11.763,0,0,0,4.546.908,11.715,11.715,0,0,0,4.479-.881" transform="translate(1886.151 -3333.268)" fill="#ae862e"/>
      <path id="Path_29" data-name="Path 29" d="M-1873.977,3332.735a11.692,11.692,0,0,0-4.725-.986,11.667,11.667,0,0,0-11.709,11.626,11.615,11.615,0,0,0,6.11,10.215v-12.723Z" transform="translate(1890.411 -3331.749)" fill="#124634"/>
      <path id="Path_30" data-name="Path 30" d="M-1862.913,3354.457v-20.5a11.611,11.611,0,0,1,6.174,10.248,11.62,11.62,0,0,1-6.174,10.251" transform="translate(1880.154 -3332.58)" fill="#124634"/>
      <path id="Path_31" data-name="Path 31" d="M-1766.925,3344.433a2.547,2.547,0,0,0-.609-.438,3.326,3.326,0,0,0-1.439-.3,4.382,4.382,0,0,0-2.292.666c-.071.043-.157.1-.253.163h0a6.03,6.03,0,0,0-1.412,1.36v-2.091h-2.656v13h2.656v-9.876a3.409,3.409,0,0,1,2.52-1.4,1.965,1.965,0,0,1,1.714.9,4.192,4.192,0,0,1,.523,2.422v7.949h2.69v-7.538c0-1.509.085-3.465-1.439-4.813" transform="translate(1847.583 -3336.241)" fill="#124634"/>
      <path id="Path_32" data-name="Path 32" d="M-1785.849,3344.433a2.564,2.564,0,0,0-.609-.438,3.323,3.323,0,0,0-1.439-.3,4.38,4.38,0,0,0-2.292.666c-.072.043-.157.1-.254.163h0a6.023,6.023,0,0,0-1.413,1.36v-2.091h-2.656v13h2.656v-9.876a3.41,3.41,0,0,1,2.521-1.4,1.967,1.967,0,0,1,1.714.9,4.191,4.191,0,0,1,.521,2.422v7.949h2.69v-7.538c0-1.509.085-3.465-1.439-4.813" transform="translate(1854.642 -3336.241)" fill="#124634"/>
      <path id="Path_33" data-name="Path 33" d="M-1800.273,3340.446a1.336,1.336,0,0,0,1.354-1.327,1.334,1.334,0,0,0-1.354-1.325,1.329,1.329,0,0,0-1.333,1.325,1.33,1.33,0,0,0,1.333,1.327" transform="translate(1857.287 -3334.023)" fill="#124634"/>
    </g>
    <rect id="Rectangle_31" data-name="Rectangle 31" width="2.655" height="12.998" transform="translate(55.681 7.546)" fill="#124634"/>
    <g id="Group_2520" data-name="Group 2520" transform="translate(29.118 2.143)">
      <path id="Path_34" data-name="Path 34" d="M-1811.795,3345.623a7.431,7.431,0,0,0-.775-.853,4.088,4.088,0,0,0-2.36-.908,3.454,3.454,0,0,0-1.245.249,5.292,5.292,0,0,0-1.965,1.3c-.181.176-.314.311-.509.485v-2.05h-2.588V3362.3h2.588v-5.639a4.564,4.564,0,0,0,2.093.515,5.078,5.078,0,0,0,2.209-.522,6.113,6.113,0,0,0,1.551-1.349,8.979,8.979,0,0,0,2.107-5.8,6.477,6.477,0,0,0-1.105-3.88m-3.058,10.149a2.052,2.052,0,0,1-1.415.552,2.342,2.342,0,0,1-1.966-1.122,3.843,3.843,0,0,1-.416-.636v-7.725a6.2,6.2,0,0,1,.724-.579,2.253,2.253,0,0,1,1.468-.5,2.841,2.841,0,0,1,2.353,1.868,10.62,10.62,0,0,1,.669,3.822c0,1.181-.165,3.215-1.417,4.315" transform="translate(1835.491 -3338.443)" fill="#124634"/>
      <path id="Path_35" data-name="Path 35" d="M-1832.074,3339.921a2.375,2.375,0,0,1-.424.056.832.832,0,0,1-.538-.141.973.973,0,0,1-.255-.309,5.752,5.752,0,0,0-1.756-2.34,4.678,4.678,0,0,0-2.776-.733,4.447,4.447,0,0,0-1.289.183,3.234,3.234,0,0,0-1.062.536,2.651,2.651,0,0,0-.722.859,2.366,2.366,0,0,0-.269,1.127,2.6,2.6,0,0,0,1.119,2.17,14.649,14.649,0,0,0,3.3,1.72,11.588,11.588,0,0,1,4.009,2.381,4.428,4.428,0,0,1,1.288,3.228,6.424,6.424,0,0,1-.354,2.156,4.6,4.6,0,0,1-1.1,1.748,5.138,5.138,0,0,1-1.941,1.17,8.593,8.593,0,0,1-2.861.423,12.863,12.863,0,0,1-3.186-.367,9.09,9.09,0,0,1-2.422-.958q-.086-1.184-.255-2.283t-.4-2.2a1.219,1.219,0,0,1,.481-.086.8.8,0,0,1,.525.156,1.291,1.291,0,0,1,.325.493,6.793,6.793,0,0,0,1.828,2.988,4.661,4.661,0,0,0,3.13.958,4.506,4.506,0,0,0,1.586-.254,3.129,3.129,0,0,0,1.133-.7,3.015,3.015,0,0,0,.68-1.014,3.23,3.23,0,0,0,.226-1.212,2.86,2.86,0,0,0-1.006-2.312,9.538,9.538,0,0,0-2.875-1.522,22.087,22.087,0,0,1-2.21-.943,7.329,7.329,0,0,1-1.7-1.142,4.51,4.51,0,0,1-1.09-1.508,4.992,4.992,0,0,1-.383-2.043,5.023,5.023,0,0,1,.383-1.958,4.565,4.565,0,0,1,1.1-1.593,5.337,5.337,0,0,1,1.742-1.072,6.339,6.339,0,0,1,2.294-.394,12.506,12.506,0,0,1,2.549.254,17.754,17.754,0,0,1,2.748.846q.056.846.156,1.818t.268,1.818" transform="translate(1843.971 -3335.185)" fill="#124634"/>
      <path id="Path_36" data-name="Path 36" d="M-1713.806,3347.475a.48.48,0,0,1-.349-.106.485.485,0,0,1-.137-.226,2.54,2.54,0,0,0-.988-1.769,3.345,3.345,0,0,0-1.928-.529,2.587,2.587,0,0,0-1.565.5,1.61,1.61,0,0,0-.683,1.376,1.656,1.656,0,0,0,.623,1.314,6.873,6.873,0,0,0,2.263,1.043,14.554,14.554,0,0,1,1.626.6,5.031,5.031,0,0,1,1.275.8,3.307,3.307,0,0,1,.835,1.148,3.95,3.95,0,0,1,.3,1.617,4.049,4.049,0,0,1-.288,1.511,3.439,3.439,0,0,1-.881,1.27,4.474,4.474,0,0,1-1.488.876,6.189,6.189,0,0,1-2.142.332,11.781,11.781,0,0,1-2.173-.227,7.1,7.1,0,0,1-2.172-.771c-.042-.524-.076-1.073-.107-1.647s-.045-1.153-.045-1.738h.3a1.146,1.146,0,0,1,.517.105.423.423,0,0,1,.243.347,3,3,0,0,0,.987,2.04,3.505,3.505,0,0,0,2.415.771,2.91,2.91,0,0,0,1.914-.558,1.886,1.886,0,0,0,.668-1.527,1.77,1.77,0,0,0-.729-1.526,7.262,7.262,0,0,0-2.156-.952,7.706,7.706,0,0,1-2.811-1.42,3.205,3.205,0,0,1-1.017-2.569,3.659,3.659,0,0,1,.3-1.481,3.645,3.645,0,0,1,.85-1.209,4.033,4.033,0,0,1,1.337-.817,4.911,4.911,0,0,1,1.762-.3,8.1,8.1,0,0,1,2.294.317,7.51,7.51,0,0,1,1.685.681q.03.242.061.588t.046.726c.01.253.02.5.031.756s.015.479.015.68Z" transform="translate(1798.411 -3338.41)" fill="#124634"/>
    </g>
    <path id="Path_37" data-name="Path 37" d="M-1728.353,3343.69l-7.551,18.551h-1.952l2.845-5.993-4.69-12.558,2.9,0,3.355,9.438,3.681-9.441Z" transform="translate(1834.197 -3336.241)" fill="#124634"/>
    <path id="Path_38" data-name="Path 38" d="M-1746.588,3349.963a10.929,10.929,0,0,0-.088-1.609,7.206,7.206,0,0,0-.536-1.7,4.33,4.33,0,0,0-3.043-2.74,4.838,4.838,0,0,0-2.58.17l-.061.022a3.8,3.8,0,0,0-.355.149,5.885,5.885,0,0,0-1.989,1.469,7.186,7.186,0,0,0-1.568,2.663,6.856,6.856,0,0,0-.371,1.69c-.006.066-.012.132-.016.2,0,.023,0,.045-.006.068h0a5.563,5.563,0,0,0,0,.556,6.843,6.843,0,0,0,.781,3.029,6.036,6.036,0,0,0,.638.99,5.5,5.5,0,0,0,4.334,2.142,4.869,4.869,0,0,0,3.673-1.568,5.634,5.634,0,0,0,1.126-1.564.752.752,0,0,0-1.01.115,2.5,2.5,0,0,1-.293.262,2.946,2.946,0,0,1-2.006.744,3.994,3.994,0,0,1-1.856-.46,4.738,4.738,0,0,1-1.335-1.1,5.8,5.8,0,0,1-1.285-3.533Zm-3.95-5.371a2.209,2.209,0,0,1,1.727,2.165,2.274,2.274,0,0,1-.031.64,2.24,2.24,0,0,1-.622,1.2c-.444.395-.954.4-1.886.382-1,0-1.988,0-2.954.008a8,8,0,0,1,1.156-3.227,2.59,2.59,0,0,1,1.793-1.178,2.4,2.4,0,0,1,.817.012" transform="translate(1840.726 -3336.285)" fill="#124634"/>
  </g>
</svg>
